<svg width="117" height="22" viewBox="0 0 117 22" fill="none" xmlns="http://www.w3.org/2000/svg">
<g clip-path="url(#clip0_160_53)">
<path d="M12.035 22V6.195H18.27V1.7H0.116V6.195H6.351V22H12.035ZM28.6704 7.239L34.6154 22H40.5024L31.5124 1.7H25.9444L16.9544 22H22.7544L28.6704 7.239ZM49.2366 22.406C55.2686 22.406 58.2266 19.39 58.2266 15.852C58.2266 8.399 46.6846 10.719 46.6846 7.558C46.6846 6.543 47.5836 5.731 49.9906 5.731C51.7886 5.731 53.7026 6.224 55.6456 7.268L57.3566 3.092C55.3846 1.903 52.6586 1.294 50.0486 1.294C44.0456 1.294 41.0876 4.252 41.0876 7.848C41.0876 15.417 52.6296 13.039 52.6296 16.287C52.6296 17.302 51.7016 17.969 49.2946 17.969C46.9456 17.969 44.3936 17.186 42.5956 15.968L40.7106 20.173C42.6246 21.507 45.9306 22.406 49.2366 22.406ZM72.4216 10.69L80.6866 1.7H74.4516L66.5056 10.226V1.7H60.9086V22H66.5056V16.925L68.6806 14.576L74.5676 22H81.1506L72.4216 10.69ZM98.0859 22V17.505H88.3709V1.7H82.6869V22H98.0859ZM109.108 14.721L116.88 1.7H111.399L106.527 9.82L101.684 1.7H95.6807L103.453 14.663V22H109.108V14.721Z" fill="white"/>
<path d="M59 14.5L73 0" stroke="#1F2430" stroke-width="5"/>
</g>
<defs>
<clipPath id="clip0_160_53">
<rect width="117" height="22" fill="white"/>
</clipPath>
</defs>
</svg>
