<svg width="165" height="40" viewBox="0 0 165 40" fill="none" xmlns="http://www.w3.org/2000/svg">
<g clip-path="url(#clip0_551_84)">
<mask id="mask0_551_84" style="mask-type:luminance" maskUnits="userSpaceOnUse" x="0" y="0" width="165" height="40">
<path d="M165 0H0V40H165V0Z" fill="white"/>
</mask>
<g mask="url(#mask0_551_84)">
<path d="M60.035 30.9999V15.1949H66.27V10.6999H48.116V15.1949H54.351V30.9999H60.035ZM76.6704 16.2389L82.6154 30.9999H88.5024L79.5124 10.6999H73.9444L64.9544 30.9999H70.7544L76.6704 16.2389ZM97.2366 31.4059C103.269 31.4059 106.227 28.3899 106.227 24.8519C106.227 17.3989 94.6846 19.7189 94.6846 16.5579C94.6846 15.5429 95.5836 14.7309 97.9906 14.7309C99.7886 14.7309 101.703 15.2239 103.646 16.2679L105.357 12.0919C103.385 10.9029 100.659 10.2939 98.0486 10.2939C92.0456 10.2939 89.0876 13.2519 89.0876 16.8479C89.0876 24.4169 100.63 22.0389 100.63 25.2869C100.63 26.3019 99.7016 26.9689 97.2946 26.9689C94.9456 26.9689 92.3936 26.1859 90.5956 24.9679L88.7106 29.1729C90.6246 30.5069 93.9306 31.4059 97.2366 31.4059ZM120.422 19.6899L128.687 10.6999H122.452L114.506 19.2259V10.6999H108.909V30.9999H114.506V25.9249L116.681 23.5759L122.568 30.9999H129.151L120.422 19.6899ZM146.086 30.9999V26.5049H136.371V10.6999H130.687V30.9999H146.086ZM157.108 23.7209L164.88 10.6999H159.399L154.527 18.8199L149.684 10.6999H143.681L151.453 23.6629V30.9999H157.108V23.7209Z" fill="#31416D"/>
<path d="M20 40C31.0457 40 40 31.0457 40 20C40 8.9543 31.0457 0 20 0C8.9543 0 0 8.9543 0 20C0 31.0457 8.9543 40 20 40Z" fill="#31416D"/>
<path d="M9 11.8999C9 11.1689 9.39884 10.4961 10.0402 10.1453L12.395 8.85714L16 7V31C16 32.1046 15.1046 33 14 33H11C9.89543 33 9 32.1046 9 31V11.8999Z" fill="white"/>
<path d="M17 4L23 7.10714V31C23 32.1046 22.1046 33 21 33H19C17.8954 33 17 32.1046 17 31V4Z" fill="white"/>
<path d="M24 10L29.8896 12.9249C30.5698 13.2627 31 13.9567 31 14.7161V31C31 32.1046 30.1046 33 29 33H26C24.8954 33 24 32.1046 24 31V21.5V10Z" fill="white"/>
<path d="M107 23.5L121 9" stroke="#292A2D" stroke-width="5"/>
</g>
</g>
<defs>
<clipPath id="clip0_551_84">
<rect width="165" height="40" fill="white"/>
</clipPath>
</defs>
</svg>
