<svg width="165" height="40" viewBox="0 0 165 40" fill="none" xmlns="http://www.w3.org/2000/svg">
<g clip-path="url(#clip0_100_168)">
<path d="M60.035 31V15.195H66.27V10.7H48.116V15.195H54.351V31H60.035ZM76.6704 16.239L82.6154 31H88.5024L79.5124 10.7H73.9444L64.9544 31H70.7544L76.6704 16.239ZM97.2366 31.406C103.269 31.406 106.227 28.39 106.227 24.852C106.227 17.399 94.6846 19.719 94.6846 16.558C94.6846 15.543 95.5836 14.731 97.9906 14.731C99.7886 14.731 101.703 15.224 103.646 16.268L105.357 12.092C103.385 10.903 100.659 10.294 98.0486 10.294C92.0456 10.294 89.0876 13.252 89.0876 16.848C89.0876 24.417 100.63 22.039 100.63 25.287C100.63 26.302 99.7016 26.969 97.2946 26.969C94.9456 26.969 92.3936 26.186 90.5956 24.968L88.7106 29.173C90.6246 30.507 93.9306 31.406 97.2366 31.406ZM120.422 19.69L128.687 10.7H122.452L114.506 19.226V10.7H108.909V31H114.506V25.925L116.681 23.576L122.568 31H129.151L120.422 19.69ZM146.086 31V26.505H136.371V10.7H130.687V31H146.086ZM157.108 23.721L164.88 10.7H159.399L154.527 18.82L149.684 10.7H143.681L151.453 23.663V31H157.108V23.721Z" fill="#31416D"/>
<circle cx="20" cy="20" r="20" fill="#31416D"/>
<path d="M9 11.8999C9 11.1689 9.39884 10.4961 10.0402 10.1453L12.395 8.85714L16 7V31C16 32.1046 15.1046 33 14 33H11C9.89543 33 9 32.1046 9 31V11.8999Z" fill="white"/>
<path d="M17 4L23 7.10714V31C23 32.1046 22.1046 33 21 33H19C17.8954 33 17 32.1046 17 31V4Z" fill="white"/>
<path d="M24 10L29.8896 12.9249C30.5698 13.2627 31 13.9567 31 14.7161V31C31 32.1046 30.1046 33 29 33H26C24.8954 33 24 32.1046 24 31V21.5V10Z" fill="white"/>
<path d="M107 23.5L121 9" stroke="white" stroke-width="5"/>
</g>
<defs>
<clipPath id="clip0_100_168">
<rect width="165" height="40" fill="white"/>
</clipPath>
</defs>
</svg>
